<svg width="134" height="18" viewBox="0 0 134 18" fill="none" xmlns="http://www.w3.org/2000/svg">
<path d="M19.6484 2.63697V4.63334L26.1666 4.65033L32.676 4.67581L32.702 7.41127L32.7193 10.1552H34.7535H36.7877V5.3979V0.640596H28.2181H19.6484V2.63697Z" fill="white"/>
<path d="M97.9062 2.63697V4.63334L104.424 4.65033L110.934 4.67581L110.96 7.41127L110.977 10.1552H113.011H115.046V5.3979V0.640596H106.476H97.9062V2.63697Z" fill="white"/>
<path d="M124.008 7.53984L117.031 14.4379V16.035V17.6321H118.529L120.018 17.6406L124.969 12.7304L129.92 7.82018L129.929 12.7219V17.6321H131.963H133.997V12.7049V7.7777H131.989H129.972L131.989 5.79832L133.997 3.82744V2.23034V0.641739H132.491H130.985L124.008 7.53984Z" fill="white"/>
<path d="M0 9.18028V17.633H6.44887H12.8977V15.6366V13.6403H14.9319H16.9661V9.22275V4.80525H14.9319H12.8977V2.76641V0.727558H6.44887H0V9.18028ZM12.8977 9.22275V13.6403H8.48307H4.06841V9.22275V4.80525H8.48307H12.8977V9.22275Z" fill="white"/>
<path d="M43.8887 2.76641V4.80525H41.8545H39.8203V11.2191V17.633H46.2692H52.718V15.6366V13.6403H54.7523H56.7865V7.18391V0.727558H50.3376H43.8887V2.76641ZM52.718 9.22275V13.6403H48.3034H43.8887V9.22275V4.80525H48.3034H52.718V9.22275Z" fill="white"/>
<path d="M63.0598 0.836944C63.0425 0.89641 63.0338 1.8054 63.0425 2.8503L63.0684 4.76172L67.4658 4.78721L71.8545 4.8042V2.76535V0.726506H67.4831C64.0206 0.726506 63.0944 0.751992 63.0598 0.836944Z" fill="white"/>
<path d="M77.8125 2.72397V4.72034H86.3821H94.9518V2.72397V0.727596H86.3821H77.8125V2.72397Z" fill="white"/>
<path d="M58.9531 7.26886V9.73246H60.9873H63.0129L63.0388 10.599L63.0648 11.474L67.4622 11.4995L71.8509 11.5165V12.5784V13.6403H67.4362H63.0215V15.6366V17.633H67.4362H71.8509V16.3162V14.9995L73.911 14.9825L75.9625 14.957L75.9885 11.9242L76.0058 8.88294L73.9543 8.86595L71.8941 8.84047L71.8682 8.13537L71.8422 7.43876H67.4362H63.0215V6.12201V4.80525H60.9873H58.9531V7.26886Z" fill="white"/>
<path d="M25.5469 7.97396V9.52009L29.6845 13.5808L33.8135 17.633H35.3111H36.7999V16.0359L36.7913 14.4473L32.7229 10.4291L28.6544 6.41934H27.0963H25.5469V7.97396Z" fill="white"/>
<path d="M103.781 7.97396V9.52009L107.919 13.5808L112.048 17.633H113.545H115.034V16.0359L115.026 14.4473L110.957 10.4291L106.889 6.41934H105.331H103.781V7.97396Z" fill="white"/>
<path d="M84.6336 9.05285L84.6076 11.0152L82.8418 9.1378L81.0845 7.26886H79.4485H77.8125V8.87445V10.4715L81.3702 14.0565L84.9279 17.633H89.9398H94.9518V15.6366V13.6403H91.0219H87.0919L85.9147 12.383L84.7461 11.1342L89.8273 11.0917L94.9085 11.0492L94.9345 9.06984L94.9518 7.09896H89.8013H84.6509L84.6336 9.05285Z" fill="white"/>
<path d="M19.5625 13.4279V17.633H21.64H23.7175V13.4279V9.22275H21.64H19.5625V13.4279Z" fill="white"/>
<path d="M97.8125 13.4279V17.633H99.89H101.967V13.4279V9.22275H99.89H97.8125V13.4279Z" fill="white"/>
</svg>
